<svg xmlns="http://www.w3.org/2000/svg" width="11.29" height="10.415" viewBox="0 0 11.29 10.415">
    <defs>
        <clipPath id="clip-path">
            <path id="Path_63" d="M10.785-11.539a.578.578 0 0 1-.261-.062l-2.879-1.464L4.767-11.6a.579.579 0 0 1-.594-.043.541.541 0 0 1-.224-.537l.551-3.094-2.326-2.19a.54.54 0 0 1-.145-.564.559.559 0 0 1 .456-.374l3.215-.456 1.44-2.816a.6.6 0 0 1 1.011 0l1.438 2.817 3.218.455a.559.559 0 0 1 .456.374.54.54 0 0 1-.145.564l-2.326 2.19.548 3.092a.542.542 0 0 1-.224.537.571.571 0 0 1-.332.105" class="cls-1" transform="translate(-2 21.954)"/>
        </clipPath>
        <clipPath id="clip-path-2">
            <path id="Rectangle_36" d="M0 0H16.935V16.484H0z" class="cls-1"/>
        </clipPath>
        <clipPath id="clip-path-3">
            <path id="Path_62" d="M1-11.461h12.419V-23H1z" class="cls-1" transform="translate(-1 23)"/>
        </clipPath>
        <style>
            .cls-1{fill:#55ccd4}
        </style>
    </defs>
    <g id="Group_85" clip-path="url(#clip-path)">
        <g id="Group_84" transform="translate(-2.823 -2.772)" style="isolation:isolate">
            <g id="Group_83" clip-path="url(#clip-path-2)">
                <g id="Group_82" clip-path="url(#clip-path-3)" transform="translate(2.258 2.198)">
                    <path id="Path_61" d="M-3-26.954h16.935v15.91H-3z" class="cls-1" transform="translate(.742 24.782)"/>
                </g>
            </g>
        </g>
    </g>
</svg>
