<svg xmlns="http://www.w3.org/2000/svg" width="52" height="52" viewBox="0 0 52 52">
    <defs>
        <clipPath id="clip-path">
            <path id="Path_1285" d="M156.345-494.069a1.554 1.554 0 0 1-1.552-1.552 1.554 1.554 0 0 1 1.552-1.552 1.554 1.554 0 0 1 1.552 1.552 1.554 1.554 0 0 1-1.552 1.552m0-5.172a3.625 3.625 0 0 0-3.621 3.621 3.625 3.625 0 0 0 3.621 3.62 3.625 3.625 0 0 0 3.621-3.621 3.625 3.625 0 0 0-3.621-3.621m8.276 7.758a1.036 1.036 0 0 1-1.034 1.035H149.1a1.036 1.036 0 0 1-1.034-1.035v-8.276a1.036 1.036 0 0 1 1.034-1.034h14.482a1.035 1.035 0 0 1 1.034 1.034zm-10.345-12.931a.518.518 0 0 1 .517-.517h3.1a.518.518 0 0 1 .517.517v1.552h-4.138zm9.31 1.552h-3.1v-1.552A2.589 2.589 0 0 0 157.9-507h-3.1a2.589 2.589 0 0 0-2.586 2.586v1.552h-3.1a3.107 3.107 0 0 0-3.1 3.1v8.276a3.107 3.107 0 0 0 3.1 3.1h14.482a3.107 3.107 0 0 0 3.1-3.1v-8.276a3.107 3.107 0 0 0-3.1-3.1z" class="cls-1" transform="translate(-146 507)"/>
        </clipPath>
        <clipPath id="clip-path-2">
            <path id="Rectangle_448" d="M0 0H31.118V28.724H0z" class="cls-1"/>
        </clipPath>
        <clipPath id="clip-path-3">
            <path id="Path_1284" d="M146-488.38h20.689V-507H146z" class="cls-1" transform="translate(-146 507)"/>
        </clipPath>
        <linearGradient id="linear-gradient" x1=".857" x2=".109" y1="-.154" y2="1.081" gradientUnits="objectBoundingBox">
            <stop offset="0" stop-color="#686f8c"/>
            <stop offset="1" stop-color="#3f3446"/>
        </linearGradient>
        <style>
            .cls-1{fill:#fff}
        </style>
    </defs>
    <g id="Group_1743" transform="translate(-42.933 -395.933)">
        <circle id="Ellipse_16" cx="26" cy="26" r="26" fill="url(#linear-gradient)" transform="translate(42.933 395.933)"/>
        <g id="Group_1742" clip-path="url(#clip-path)" transform="translate(58.845 412.408)">
            <g id="Group_1741" transform="translate(-4.99 -4.908)" style="isolation:isolate">
                <g id="Group_1740" clip-path="url(#clip-path-2)">
                    <g id="Group_1739" clip-path="url(#clip-path-3)" transform="translate(4.99 4.908)">
                        <path id="Path_1283" d="M141-512h31.034v28.965H141z" class="cls-1" transform="translate(-146.172 506.828)"/>
                    </g>
                </g>
            </g>
        </g>
    </g>
</svg>
