<svg xmlns="http://www.w3.org/2000/svg" width="68" height="68" viewBox="0 0 68 68">
    <defs>
        <clipPath id="clip-path">
            <path id="Path_1267" d="M447.006-66.4a10.319 10.319 0 0 0-7.463 3.154 10.318 10.318 0 0 0-2.937 7.553 10.557 10.557 0 0 0 9.945 10.086 10.442 10.442 0 0 0 10.849-9.846c.009-.166.008-.9.005-1.585h-9.1v2.057h6.9l-.527 1.688a7.758 7.758 0 0 1-6.358 5.523 8.492 8.492 0 0 1-6.486-1.8 8.255 8.255 0 0 1-3.127-5.773 8.253 8.253 0 0 1 2.193-6.307 8.471 8.471 0 0 1 8.669-2.268l1.005-1.858a10.352 10.352 0 0 0-3.563-.624M447-43c-.183 0-.369 0-.555-.012a13.2 13.2 0 0 1-12.437-12.61 12.91 12.91 0 0 1 3.672-9.44A12.908 12.908 0 0 1 447.006-69a12.92 12.92 0 0 1 5.356 1.151 1.872 1.872 0 0 1 1 1.106 1.908 1.908 0 0 1-.129 1.511l-1.68 3.1a1.881 1.881 0 0 1-2.386.836 5.841 5.841 0 0 0-6.365 1.413 5.683 5.683 0 0 0-1.506 4.341 5.657 5.657 0 0 0 2.156 3.941 5.864 5.864 0 0 0 4.483 1.259 5.055 5.055 0 0 0 3.422-2.039h-3.775a1.888 1.888 0 0 1-1.885-1.885v-3.487a1.888 1.888 0 0 1 1.885-1.885h10.532A1.89 1.89 0 0 1 460-57.769c0 .82.007 2.208-.005 2.447A13.047 13.047 0 0 1 447-43" class="cls-1"/>
        </clipPath>
        <clipPath id="clip-path-2">
            <path id="Rectangle_437" d="M0 0H41V40H0z" class="cls-1" transform="translate(-.199 -.497)"/>
        </clipPath>
        <clipPath id="clip-path-3">
            <path id="Path_1266" d="M433-43h28.6v-26H433z" class="cls-1" transform="translate(-433 69)"/>
        </clipPath>
        <filter id="Ellipse_7" width="68" height="68" x="0" y="0" filterUnits="userSpaceOnUse">
            <feOffset dy="3"/>
            <feGaussianBlur result="blur" stdDeviation="3"/>
            <feFlood flood-opacity=".11"/>
            <feComposite in2="blur" operator="in"/>
            <feComposite in="SourceGraphic"/>
        </filter>
        <style>
            .cls-1{fill:#fe8d7b}
        </style>
    </defs>
    <g id="Group_2032" transform="translate(-123 -535)">
        <g filter="url(#Ellipse_7)" transform="translate(123 535)">
            <circle id="Ellipse_7-2" cx="25" cy="25" r="25" fill="#f5f5f5" transform="translate(9 6)"/>
        </g>
        <g id="Group_1701" clip-path="url(#clip-path)" transform="translate(-290 621.998)">
            <g id="Group_1700" transform="translate(426.199 -75.501)" style="isolation:isolate">
                <g id="Group_1699" clip-path="url(#clip-path-2)">
                    <g id="Group_1698" clip-path="url(#clip-path-3)" transform="translate(6.501 6.501)">
                        <path id="Path_1265" d="M429-74h39.006v39.006H429z" class="cls-1" transform="translate(-434.201 67.499)"/>
                    </g>
                </g>
            </g>
        </g>
    </g>
</svg>
