<svg xmlns="http://www.w3.org/2000/svg" width="24.307" height="24.305" viewBox="0 0 24.307 24.305">
    <defs>
        <clipPath id="clip-path">
            <path id="Path_51" d="M14.153-12.063a1.216 1.216 0 0 1 1.215 1.215 1.216 1.216 0 0 1-1.215 1.215 1.216 1.216 0 0 1-1.215-1.215 1.216 1.216 0 0 1 1.215-1.215zm4.861 0a1.216 1.216 0 0 1 1.215 1.215 1.216 1.216 0 0 1-1.215 1.215 1.216 1.216 0 0 1-1.214-1.215 1.216 1.216 0 0 1 1.214-1.215zm-9.722 0a1.216 1.216 0 0 1 1.215 1.215 1.216 1.216 0 0 1-1.215 1.215 1.216 1.216 0 0 1-1.215-1.215 1.216 1.216 0 0 1 1.215-1.215zm14.46 2.789A9.773 9.773 0 0 1 16-1.3a9.726 9.726 0 0 1-5.611-.592 3.908 3.908 0 0 0-1.523-.318 3.483 3.483 0 0 0-.684.067l-3.418.683.684-3.423a3.745 3.745 0 0 0-.252-2.2 9.735 9.735 0 0 1-.592-5.611 9.772 9.772 0 0 1 7.975-7.752 9.7 9.7 0 0 1 8.447 2.723 9.7 9.7 0 0 1 2.725 8.449m-1.004-10.167a12.126 12.126 0 0 0-10.541-3.408 12.242 12.242 0 0 0-9.99 9.706 12.162 12.162 0 0 0 .743 7.006 1.336 1.336 0 0 1 .108.777L2.024-.149a1.211 1.211 0 0 0 .333 1.1 1.21 1.21 0 0 0 .859.356 1.226 1.226 0 0 0 .238-.023L8.659.24a1.4 1.4 0 0 1 .781.107 12.176 12.176 0 0 0 7.006.743 12.242 12.242 0 0 0 9.708-9.99 12.114 12.114 0 0 0-3.408-10.541" class="cls-1" transform="translate(-2 23)"/>
        </clipPath>
        <clipPath id="clip-path-2">
            <path id="Rectangle_30" d="M0 0H37V36H0z" class="cls-1" transform="translate(.104)"/>
        </clipPath>
        <clipPath id="clip-path-3">
            <path id="Path_50" d="M1 2.736h26.736V-24H1z" class="cls-1" transform="translate(-1 24)"/>
        </clipPath>
        <linearGradient id="linear-gradient" x1=".5" x2=".5" y2="1" gradientUnits="objectBoundingBox">
            <stop offset="0" stop-color="#fe8d7b"/>
            <stop offset="1" stop-color="#ffb68d"/>
        </linearGradient>
        <style>
            .cls-1{fill:url(#linear-gradient)}
        </style>
    </defs>
    <g id="msg">
        <g id="Group_66">
            <g id="Group_65" clip-path="url(#clip-path)">
                <g id="Group_64" transform="translate(-5.994 -5.847)" style="isolation:isolate">
                    <g id="Group_63" clip-path="url(#clip-path-2)">
                        <g id="Group_62" clip-path="url(#clip-path-3)" transform="translate(4.779 4.632)">
                            <path id="Path_49" d="M-3-28h36.459V8.457H-3z" class="cls-1" transform="translate(-1.861 23.139)"/>
                        </g>
                    </g>
                </g>
            </g>
        </g>
    </g>
</svg>
