<svg xmlns="http://www.w3.org/2000/svg" id="notif" width="21.875" height="24.304" viewBox="0 0 21.875 24.304">
    <defs>
        <clipPath id="clip-path">
            <path id="Path_54" d="M6.056-4.986L7.49-6.423a2.414 2.414 0 0 0 .71-1.718v-5.684a5.75 5.75 0 0 1 1.969-4.322 5.664 5.664 0 0 1 4.542-1.372 5.9 5.9 0 0 1 4.961 5.949v5.429a2.413 2.413 0 0 0 .711 1.717l1.435 1.438zm10.312 2.845a2.284 2.284 0 0 1-2.431 2.016 2.284 2.284 0 0 1-2.431-2.016v-.414h4.861zm7.925-3.807L22.1-8.141v-5.429a8.334 8.334 0 0 0-7.073-8.357 8.169 8.169 0 0 0-6.462 1.953 8.177 8.177 0 0 0-2.8 6.149v5.684L3.582-5.949a1.982 1.982 0 0 0-.43 2.166 1.984 1.984 0 0 0 1.837 1.227h4.087v.414a4.672 4.672 0 0 0 4.861 4.447A4.672 4.672 0 0 0 18.8-2.141v-.414h4.087a1.98 1.98 0 0 0 1.833-1.227 1.98 1.98 0 0 0-.428-2.167z" class="cls-1" transform="translate(-2.999 21.999)"/>
        </clipPath>
        <clipPath id="clip-path-2">
            <path id="Rectangle_31" d="M0 0H36V36H0z" class="cls-1" transform="translate(.101)"/>
        </clipPath>
        <clipPath id="clip-path-3">
            <path id="Path_53" d="M2 2.521h24.306V-23H2z" class="cls-1" transform="translate(-2 23)"/>
        </clipPath>
        <linearGradient id="linear-gradient" x1=".5" x2=".5" y2="1" gradientUnits="objectBoundingBox">
            <stop offset="0" stop-color="#fe8d7b"/>
            <stop offset="1" stop-color="#ffb68d"/>
        </linearGradient>
        <style>
            .cls-1{fill:url(#linear-gradient)}
        </style>
    </defs>
    <g id="Group_71">
        <g id="Group_70" clip-path="url(#clip-path)">
            <g id="Group_69" transform="translate(-8.172 -5.847)" style="isolation:isolate">
                <g id="Group_68" clip-path="url(#clip-path-2)">
                    <g id="Group_67" clip-path="url(#clip-path-3)" transform="translate(6.957 4.63)">
                        <path id="Path_52" d="M-2-27h34.027V9.458H-2z" class="cls-1" transform="translate(-2.861 22.139)"/>
                    </g>
                </g>
            </g>
        </g>
    </g>
</svg>
