<svg xmlns="http://www.w3.org/2000/svg" width="18.904" height="24.306" viewBox="0 0 18.904 24.306">
    <defs>
        <linearGradient id="linear-gradient" x1=".5" x2=".5" y2="1" gradientUnits="objectBoundingBox">
            <stop offset="0" stop-color="#fe8d7b"/>
            <stop offset="1" stop-color="#ffb68d"/>
        </linearGradient>
        <clipPath id="clip-path">
            <path id="Path_42" d="M23.9 1.955a1.35 1.35 0 1 1-2.7 0 6.752 6.752 0 1 0-13.5 0 1.35 1.35 0 1 1-2.7 0 9.452 9.452 0 1 1 18.9 0M14.452-18.3a2.7 2.7 0 0 1 2.7 2.7 2.7 2.7 0 0 1-2.7 2.7 2.7 2.7 0 0 1-2.7-2.7 2.7 2.7 0 0 1 2.7-2.7m0 8.1a5.407 5.407 0 0 0 5.4-5.4 5.407 5.407 0 0 0-5.4-5.4 5.407 5.407 0 0 0-5.4 5.4 5.407 5.407 0 0 0 5.4 5.4" class="cls-1" transform="translate(-5 21)"/>
        </clipPath>
        <style>
            .cls-1{fill:url(#linear-gradient)}
        </style>
    </defs>
    <g id="prof">
        <g id="Group_51">
            <g id="Group_50" clip-path="url(#clip-path)">
                <path id="Path_41" d="M0-26h32.407v37.809H0z" class="cls-1" transform="translate(-6.752 19.248)"/>
            </g>
        </g>
    </g>
</svg>
