<svg xmlns="http://www.w3.org/2000/svg" id="search" width="23.989" height="23.989" viewBox="0 0 23.989 23.989">
    <defs>
        <clipPath id="clip-path">
            <path id="Path_29" d="M2.665-7.338a8 8 0 0 1 8-8 8 8 0 0 1 8 8 8 8 0 0 1-8 8 8 8 0 0 1-8-8M23.6 3.714L19.074-.812a10.6 10.6 0 0 0 2.25-6.526A10.674 10.674 0 0 0 10.662-18 10.674 10.674 0 0 0 0-7.338 10.674 10.674 0 0 0 10.662 3.323a10.6 10.6 0 0 0 6.526-2.25L21.714 5.6A1.333 1.333 0 0 0 23.6 3.714" class="cls-1" transform="translate(0 18)"/>
        </clipPath>
        <clipPath id="clip-path-2">
            <path id="Rectangle_24" d="M0 0H39V38H0z" class="cls-1" transform="translate(.049)"/>
        </clipPath>
        <clipPath id="clip-path-3">
            <path id="Path_28" d="M0 5.989h23.989V-18H0z" class="cls-1" transform="translate(0 18)"/>
        </clipPath>
        <linearGradient id="linear-gradient" x1=".5" x2=".5" y2="1" gradientUnits="objectBoundingBox">
            <stop offset="0" stop-color="#fe8d7b"/>
            <stop offset="1" stop-color="#ffb68d"/>
        </linearGradient>
        <style>
            .cls-1{fill:url(#linear-gradient)}
        </style>
    </defs>
    <g id="Group_31" clip-path="url(#clip-path)">
        <g id="Group_30" transform="translate(-7.774 -7)" style="isolation:isolate">
            <g id="Group_29" clip-path="url(#clip-path-2)">
                <g id="Group_28" clip-path="url(#clip-path-3)" transform="translate(7.774 7)">
                    <path id="Path_27" d="M-5-23h37.316v37.316H-5z" class="cls-1" transform="translate(-1.664 16.336)"/>
                </g>
            </g>
        </g>
    </g>
</svg>
