<svg xmlns="http://www.w3.org/2000/svg" width="14" height="14" viewBox="0 0 14 14">
    <defs>
        <clipPath id="clip-path">
            <path id="Path_29" d="M1.556-11.778a4.671 4.671 0 0 1 4.667-4.667 4.671 4.671 0 0 1 4.667 4.667 4.671 4.671 0 0 1-4.668 4.667 4.671 4.671 0 0 1-4.667-4.667m12.217 6.45l-2.64-2.641a6.185 6.185 0 0 0 1.313-3.809A6.229 6.229 0 0 0 6.222-18 6.229 6.229 0 0 0 0-11.778a6.229 6.229 0 0 0 6.222 6.222 6.185 6.185 0 0 0 3.809-1.313l2.641 2.641a.776.776 0 0 0 .55.228.776.776 0 0 0 .55-.228.777.777 0 0 0 0-1.1" class="cls-1" transform="translate(0 18)"/>
        </clipPath>
        <clipPath id="clip-path-2">
            <path id="Rectangle_24" d="M0 0H23V22H0z" class="cls-1" transform="translate(-.111 -.111)"/>
        </clipPath>
        <clipPath id="clip-path-3">
            <path id="Path_28" d="M0-4h14v-14H0z" class="cls-1" transform="translate(0 18)"/>
        </clipPath>
        <style>
            .cls-1{fill:#686f8c}
        </style>
    </defs>
    <g id="Group_32" transform="translate(0 18)">
        <g id="Group_31" clip-path="url(#clip-path)" transform="translate(0 -18)">
            <g id="Group_30" transform="translate(-3.889 -3.889)" style="isolation:isolate">
                <g id="Group_29" clip-path="url(#clip-path-2)">
                    <g id="Group_28" clip-path="url(#clip-path-3)" transform="translate(3.889 3.889)">
                        <path id="Path_27" d="M-5-23h21.778v21.778H-5z" class="cls-1" transform="translate(1.111 19.111)"/>
                    </g>
                </g>
            </g>
        </g>
    </g>
</svg>
