<svg xmlns="http://www.w3.org/2000/svg" id="Component_3_2" width="150.197" height="138.055" viewBox="0 0 150.197 138.055">
    <defs>
        <linearGradient id="linear-gradient" x2="1" y1=".5" y2=".5" gradientUnits="objectBoundingBox">
            <stop offset="0" stop-color="#ffb68d"/>
            <stop offset="1" stop-color="#fe8d7b"/>
        </linearGradient>
        <style>
            .cls-3{fill:#55ccd4}
        </style>
    </defs>
    <g id="Group_2031">
        <g id="Group_2030" transform="translate(35.896)">
            <path id="Path_1459" fill="#ffb68d" d="M856.221 815.188a33.621 33.621 0 0 1-7.908 7.605 31.859 31.859 0 0 1-9.069 4.307 30.114 30.114 0 0 1-9.493 1.184 32.512 32.512 0 0 1-9.4-1.738l1.266-5.219a26.834 26.834 0 0 0 30.683-9.117q6.51-8.564 6.365-16.5a15.071 15.071 0 0 0-6.022-12.4 14.174 14.174 0 0 0-4.656-2.385 11.5 11.5 0 0 0-5.552-.066 22.639 22.639 0 0 0-6.751 2.784 64.965 64.965 0 0 0-8.392 6.08l-7.576 6.409a62.9 62.9 0 0 1-6.691 4.859 27.715 27.715 0 0 1-7.232 3.291 20.478 20.478 0 0 1-7.413.735 13.349 13.349 0 0 1-7.027-2.829 16.025 16.025 0 0 1-5.412-7.109 21.561 21.561 0 0 1-1.338-9.036 32.175 32.175 0 0 1 2.14-9.671 36.769 36.769 0 0 1 5.119-9.145 33.888 33.888 0 0 1 14.11-11.194 23.982 23.982 0 0 1 16.871-.6l-1.293 5q-8.259-1.83-14.458.6a26.477 26.477 0 0 0-11.221 9.044 33.321 33.321 0 0 0-4.309 7.442 24.273 24.273 0 0 0-1.863 7.662 17.487 17.487 0 0 0 .9 7.065 11.746 11.746 0 0 0 4.1 5.529 9.147 9.147 0 0 0 4.982 1.955 14.693 14.693 0 0 0 5.6-.763 27.124 27.124 0 0 0 6.078-2.912 57.717 57.717 0 0 0 6.289-4.584l8.473-7.079q8.969-7.475 16.539-8.672t12.96 2.9a19.855 19.855 0 0 1 5.829 6.941 21.352 21.352 0 0 1 2.2 8.918 28.369 28.369 0 0 1-1.635 10.151 37.641 37.641 0 0 1-5.793 10.558z" transform="translate(-784.567 -739.963)"/>
            <path id="Path_1460" fill="#fe8d7b" d="M809.334 840.565a16.136 16.136 0 1 1 22.787-1.192 16.136 16.136 0 0 1-22.787 1.192z" transform="translate(-784.567 -739.963)"/>
            <path id="Path_1461" d="M817.733 769.954a16.137 16.137 0 1 1 22.13-5.575 16.137 16.137 0 0 1-22.13 5.575z" class="cls-3" transform="translate(-784.567 -739.963)"/>
        </g>
        <path id="Path_1462" d="M751.532 877.555a9.628 9.628 0 0 1-2.861-1.164l1.459-3.142a9.183 9.183 0 0 0 2.44 1.052 10.239 10.239 0 0 0 2.806.407q2.777 0 2.777-1.375a.973.973 0 0 0-.757-.926 11.235 11.235 0 0 0-2.329-.477 22.33 22.33 0 0 1-3.058-.645 4.744 4.744 0 0 1-2.09-1.29 3.671 3.671 0 0 1-.883-2.637 4.129 4.129 0 0 1 .827-2.539 5.331 5.331 0 0 1 2.413-1.726 10.31 10.31 0 0 1 3.745-.617 14.687 14.687 0 0 1 3.184.351 8.925 8.925 0 0 1 2.623.968l-1.459 3.114a8.709 8.709 0 0 0-4.348-1.122 4.434 4.434 0 0 0-2.1.392 1.154 1.154 0 0 0-.7 1.01 1 1 0 0 0 .757.982 13.38 13.38 0 0 0 2.413.533 26.028 26.028 0 0 1 3.029.659 4.555 4.555 0 0 1 2.048 1.277 3.62 3.62 0 0 1 .87 2.581 3.984 3.984 0 0 1-.842 2.5 5.367 5.367 0 0 1-2.454 1.7 10.942 10.942 0 0 1-3.83.6 14.642 14.642 0 0 1-3.68-.466z" class="cls-3" transform="translate(-748.671 -739.963)"/>
        <path id="Union_2" fill="url(#linear-gradient)" d="M124.163 18.193a9.608 9.608 0 0 1-2.861-1.164l1.458-3.142a9.239 9.239 0 0 0 2.441 1.052 10.24 10.24 0 0 0 2.805.407q2.778 0 2.778-1.375a.974.974 0 0 0-.758-.926 11.26 11.26 0 0 0-2.328-.477 22.344 22.344 0 0 1-3.058-.645 4.739 4.739 0 0 1-2.09-1.29A3.669 3.669 0 0 1 121.667 8a4.126 4.126 0 0 1 .828-2.539 5.325 5.325 0 0 1 2.412-1.726 10.328 10.328 0 0 1 3.746-.617 14.694 14.694 0 0 1 3.184.351 8.955 8.955 0 0 1 2.623.967L133 7.547a8.712 8.712 0 0 0-4.348-1.121 4.434 4.434 0 0 0-2.1.391 1.156 1.156 0 0 0-.7 1.01 1 1 0 0 0 .758.982 13.384 13.384 0 0 0 2.412.534 25.965 25.965 0 0 1 3.03.659 4.558 4.558 0 0 1 2.048 1.277 3.625 3.625 0 0 1 .869 2.581 3.985 3.985 0 0 1-.841 2.5 5.375 5.375 0 0 1-2.455 1.7 10.952 10.952 0 0 1-3.829.6 14.656 14.656 0 0 1-3.681-.467zm-16.13-.533A7.293 7.293 0 0 1 105 14.9a7.613 7.613 0 0 1-1.066-4.012 7.71 7.71 0 0 1 1.052-4 7.373 7.373 0 0 1 2.889-2.777A8.947 8.947 0 0 1 116 4.068a6.969 6.969 0 0 1 2.819 2.732 8.161 8.161 0 0 1 1.024 4.137q0 .085-.084 1.178h-11.418a3.562 3.562 0 0 0 1.459 2.218 4.834 4.834 0 0 0 2.861.813 5.766 5.766 0 0 0 2.09-.351 5.052 5.052 0 0 0 1.7-1.108l2.328 2.524a7.828 7.828 0 0 1-6.228 2.442 9.842 9.842 0 0 1-4.518-.993zm1.486-10.394a3.578 3.578 0 0 0-1.234 2.3h7.434a3.623 3.623 0 0 0-1.234-2.287 3.693 3.693 0 0 0-2.47-.855 3.772 3.772 0 0 0-2.496.842zm-26.5 10.015a5.259 5.259 0 0 1-1.473-4.039v-6.2h-2.323V3.675h2.327V0h4.377v3.675h3.758v3.367h-3.758v6.143a2.062 2.062 0 0 0 .49 1.472 1.814 1.814 0 0 0 1.389.519 2.816 2.816 0 0 0 1.768-.561l1.178 3.085a4.492 4.492 0 0 1-1.585.715 8 8 0 0 1-1.977.239 5.872 5.872 0 0 1-4.167-1.373zm-15.5.912a9.615 9.615 0 0 1-2.862-1.164l1.459-3.142a9.226 9.226 0 0 0 2.441 1.052 10.231 10.231 0 0 0 2.805.407q2.777 0 2.776-1.375a.973.973 0 0 0-.757-.926 11.246 11.246 0 0 0-2.328-.477A22.346 22.346 0 0 1 68 11.922a4.739 4.739 0 0 1-2.09-1.29A3.669 3.669 0 0 1 65.027 8a4.136 4.136 0 0 1 .827-2.539 5.338 5.338 0 0 1 2.413-1.726 10.331 10.331 0 0 1 3.746-.617 14.681 14.681 0 0 1 3.183.351 8.932 8.932 0 0 1 2.623.967l-1.458 3.111a8.712 8.712 0 0 0-4.348-1.121 4.436 4.436 0 0 0-2.1.391 1.155 1.155 0 0 0-.7 1.01 1 1 0 0 0 .757.982 13.361 13.361 0 0 0 2.413.534 26.133 26.133 0 0 1 3.03.659 4.553 4.553 0 0 1 2.047 1.277 3.618 3.618 0 0 1 .87 2.581 3.976 3.976 0 0 1-.842 2.5 5.37 5.37 0 0 1-2.453 1.7 10.959 10.959 0 0 1-3.829.6 14.645 14.645 0 0 1-3.682-.467zm-16.125-.533a7.3 7.3 0 0 1-3.03-2.763 7.614 7.614 0 0 1-1.064-4.012 7.718 7.718 0 0 1 1.052-4 7.381 7.381 0 0 1 2.89-2.777 8.947 8.947 0 0 1 8.122-.041A6.957 6.957 0 0 1 62.179 6.8a8.152 8.152 0 0 1 1.021 4.14q0 .085-.085 1.178H51.7a3.556 3.556 0 0 0 1.458 2.218 4.836 4.836 0 0 0 2.862.813 5.77 5.77 0 0 0 2.09-.351 5.066 5.066 0 0 0 1.7-1.108l2.327 2.524a7.823 7.823 0 0 1-6.227 2.442 9.845 9.845 0 0 1-4.516-.996zM52.88 7.266a3.583 3.583 0 0 0-1.235 2.3h7.435a3.621 3.621 0 0 0-1.235-2.286 3.685 3.685 0 0 0-2.468-.855 3.769 3.769 0 0 0-2.497.841zM4.1 17.66a7.3 7.3 0 0 1-3.033-2.76A7.614 7.614 0 0 1 0 10.885a7.709 7.709 0 0 1 1.052-4 7.373 7.373 0 0 1 2.889-2.776 8.5 8.5 0 0 1 4.11-1 8.431 8.431 0 0 1 4.012.954A6.974 6.974 0 0 1 14.882 6.8a8.16 8.16 0 0 1 1.024 4.137q0 .085-.085 1.178H4.4a3.554 3.554 0 0 0 1.459 2.218 4.832 4.832 0 0 0 2.861.813 5.77 5.77 0 0 0 2.09-.351 5.045 5.045 0 0 0 1.7-1.108l2.329 2.524a7.828 7.828 0 0 1-6.228 2.442A9.851 9.851 0 0 1 4.1 17.66zM5.582 7.266a3.586 3.586 0 0 0-1.234 2.3h7.434a3.619 3.619 0 0 0-1.234-2.286 3.691 3.691 0 0 0-2.469-.855 3.775 3.775 0 0 0-2.497.841zM93.22 18.431V3.339h4.18V5.33a4.88 4.88 0 0 1 2.119-1.655 7.848 7.848 0 0 1 3.072-.561v4.04q-.73-.057-.982-.057a4.014 4.014 0 0 0-2.946 1.053 4.25 4.25 0 0 0-1.063 3.156v7.125zm-53.273 0v-7.968a4.091 4.091 0 0 0-.747-2.678 2.613 2.613 0 0 0-2.114-.885 3.124 3.124 0 0 0-2.441 1 4.3 4.3 0 0 0-.9 2.96v7.574h-4.373v-7.971q0-3.563-2.861-3.563a3.091 3.091 0 0 0-2.413 1 4.3 4.3 0 0 0-.9 2.96v7.574h-4.375V3.339H23v1.739a5.523 5.523 0 0 1 2.062-1.459 6.947 6.947 0 0 1 2.679-.5 6.5 6.5 0 0 1 2.89.631 5.131 5.131 0 0 1 2.076 1.838 6.184 6.184 0 0 1 2.342-1.823 7.4 7.4 0 0 1 3.1-.645 6.092 6.092 0 0 1 4.5 1.669 6.809 6.809 0 0 1 1.669 5.009v8.64z" transform="translate(15.233 119.399)"/>
    </g>
</svg>
