<svg xmlns="http://www.w3.org/2000/svg" width="52" height="52" viewBox="0 0 52 52">
    <defs>
        <linearGradient id="linear-gradient" x2="1" y1=".924" gradientUnits="objectBoundingBox">
            <stop offset="0" stop-color="#fe8d7b"/>
            <stop offset="1" stop-color="#ffb68d"/>
        </linearGradient>
        <clipPath id="clip-path">
            <path id="Path_42" d="M20.412-2.286a1.1 1.1 0 0 1-1.1 1.1 1.1 1.1 0 0 1-1.1-1.1 5.51 5.51 0 0 0-5.5-5.5 5.51 5.51 0 0 0-5.5 5.5 1.1 1.1 0 0 1-1.1 1.1A1.1 1.1 0 0 1 5-2.286a7.715 7.715 0 0 1 7.706-7.706 7.715 7.715 0 0 1 7.706 7.706M12.706-18.8a2.2 2.2 0 0 1 2.2 2.2 2.2 2.2 0 0 1-2.2 2.2 2.2 2.2 0 0 1-2.2-2.2 2.2 2.2 0 0 1 2.2-2.2m0 6.605a4.408 4.408 0 0 0 4.4-4.4 4.408 4.408 0 0 0-4.4-4.4 4.408 4.408 0 0 0-4.4 4.4 4.408 4.408 0 0 0 4.4 4.4" class="cls-1" transform="translate(-5 21)"/>
        </clipPath>
        <style>
            .cls-1{fill:#fff}
        </style>
    </defs>
    <g id="Group_1744" transform="translate(-46 -234)">
        <circle id="Ellipse_15" cx="26" cy="26" r="26" fill="url(#linear-gradient)" transform="translate(46 234)"/>
        <g id="Group_1738" transform="translate(61.145 246.154)">
            <g id="Group_50" clip-path="url(#clip-path)" transform="translate(3.063 3.938)">
                <path id="Path_41" d="M0-26h26.42V4.824H0z" class="cls-1" transform="translate(-5.504 20.496)"/>
            </g>
        </g>
    </g>
</svg>
