<svg xmlns="http://www.w3.org/2000/svg" id="Group_81" width="9.308" height="9.308" viewBox="0 0 9.308 9.308">
    <defs>
        <clipPath id="clip-path">
            <path id="Path_60" d="M8.653-18.46l-2.126 2.792a.465.465 0 0 1-.367.184.466.466 0 0 1-.366-.179l-1.135-1.446a.465.465 0 0 1 .08-.653.465.465 0 0 1 .653.08l.76.971 1.761-2.313a.466.466 0 0 1 .652-.088.465.465 0 0 1 .088.652M6.654-22A4.654 4.654 0 0 0 2-17.345a4.654 4.654 0 0 0 4.654 4.654 4.654 4.654 0 0 0 4.654-4.654A4.654 4.654 0 0 0 6.654-22" class="cls-1" transform="translate(-2 22)"/>
        </clipPath>
        <clipPath id="clip-path-2">
            <path id="Rectangle_35" d="M0 0H14V14H0z" class="cls-1" transform="translate(.219 .219)"/>
        </clipPath>
        <clipPath id="clip-path-3">
            <path id="Path_59" d="M2-12.226h9.774V-22H2z" class="cls-1" transform="translate(-2 22)"/>
        </clipPath>
        <style>
            .cls-1{fill:#fff}
        </style>
    </defs>
    <g id="Group_80" clip-path="url(#clip-path)">
        <g id="Group_79" transform="translate(-2.395 -2.395)" style="isolation:isolate">
            <g id="Group_78" clip-path="url(#clip-path-2)">
                <g id="Group_77" clip-path="url(#clip-path-3)" transform="translate(2.395 2.395)">
                    <path id="Path_58" d="M-3-27h13.963v13.962H-3z" class="cls-1" transform="translate(.673 24.673)"/>
                </g>
            </g>
        </g>
    </g>
</svg>
